<?xml version="1.0" standalone="no"?>
<!DOCTYPE svg PUBLIC "-//W3C//DTD SVG 20010904//EN"
 "http://www.w3.org/TR/2001/REC-SVG-20010904/DTD/svg10.dtd">
<svg version="1.0" xmlns="http://www.w3.org/2000/svg"
 width="500.000000pt" height="500.000000pt" viewBox="0 0 500.000000 500.000000"
 preserveAspectRatio="xMidYMid meet">

<g transform="translate(0.000000,500.000000) scale(0.100000,-0.100000)"
fill="#000000" stroke="none">
<path d="M2225 4246 c-307 -51 -606 -185 -841 -377 -100 -82 -248 -240 -326
-350 -77 -107 -183 -314 -227 -440 -16 -47 -42 -139 -57 -205 -28 -114 -29
-129 -29 -374 0 -245 1 -260 29 -374 39 -166 76 -270 152 -421 238 -477 679
-816 1220 -937 88 -20 127 -22 354 -22 227 0 266 2 354 22 375 84 689 263 944
538 116 125 201 248 276 399 76 152 114 257 152 421 28 114 29 129 29 374 0
245 -1 260 -29 374 -15 66 -41 158 -57 205 -43 125 -149 332 -227 441 -87 123
-300 337 -422 423 -177 125 -434 237 -662 288 -120 27 -506 36 -633 15z m582
-46 c191 -33 412 -117 598 -228 207 -123 431 -347 564 -565 173 -283 254 -573
254 -907 0 -162 -13 -278 -49 -421 -157 -632 -683 -1138 -1319 -1269 -581
-119 -1159 56 -1581 478 -264 264 -432 602 -485 977 -17 121 -15 387 4 500 64
378 226 695 489 957 200 198 411 329 675 417 267 89 559 110 850 61z"/>
<path d="M2325 4154 c-233 -35 -402 -86 -582 -178 -161 -82 -308 -192 -444
-333 -222 -230 -374 -529 -436 -856 -24 -128 -24 -446 0 -574 43 -226 135
-452 264 -648 86 -129 290 -335 425 -428 189 -131 430 -230 663 -273 137 -25
431 -25 565 -1 167 30 306 77 460 153 179 89 316 191 461 341 222 230 374 529
436 856 24 128 24 446 0 574 -43 226 -136 454 -264 647 -84 126 -247 295 -383
398 -124 93 -319 195 -464 243 -174 57 -298 77 -496 80 -96 2 -188 1 -205 -1z
m297 -309 c26 -65 48 -120 48 -122 0 -11 -61 0 -67 12 -5 7 -27 17 -50 21 -34
5 -44 3 -49 -10 -5 -14 -64 -25 -64 -11 0 17 117 234 124 232 6 -2 32 -57 58
-122z m-280 15 c10 -52 20 -105 23 -117 8 -33 -9 -29 -79 20 -92 65 -90 65
-83 31 21 -110 22 -104 -10 -104 l-30 0 -20 113 c-11 61 -19 115 -16 119 2 5
38 -15 79 -43 42 -28 77 -49 79 -47 2 1 -1 27 -7 57 -7 42 -7 56 4 62 31 21
42 4 60 -91z m576 43 c55 -26 63 -82 18 -131 -19 -21 -27 -23 -72 -18 l-52 6
-6 -35 c-7 -37 -15 -41 -46 -25 -18 10 -18 12 0 78 10 37 23 87 30 111 l11 43
42 -6 c22 -4 56 -14 75 -23z m-925 -80 c-11 -80 -9 -122 8 -161 12 -29 12 -34
-1 -42 -26 -17 -37 -11 -56 31 -14 32 -35 52 -88 87 -65 41 -69 45 -51 58 26
20 41 18 83 -11 l37 -25 10 51 c9 49 24 65 58 68 5 1 5 -25 0 -56z m1180 -14
c12 -6 30 -18 40 -27 16 -14 16 -17 1 -33 -16 -18 -17 -18 -42 1 -48 38 -68
20 -32 -30 30 -42 38 -72 28 -101 -19 -54 -89 -56 -153 -5 -25 20 -28 26 -16
40 18 21 34 20 56 -4 21 -23 55 -27 55 -5 0 8 -11 31 -25 51 -29 42 -31 70 -9
102 17 25 61 29 97 11z m-1479 -153 l-7 -73 72 -18 c39 -9 71 -21 71 -26 0 -5
-11 -16 -25 -25 -23 -15 -31 -15 -85 -1 l-60 15 31 -40 c30 -37 31 -40 13 -53
-11 -8 -22 -15 -26 -15 -4 0 -39 42 -78 93 l-71 92 22 18 c22 17 23 17 49 -15
l27 -33 8 55 c7 51 35 100 57 100 4 0 5 -33 2 -74z m1721 -8 c57 -45 64 -58
41 -77 -11 -9 -20 -6 -44 14 -36 30 -44 31 -66 6 -16 -18 -15 -20 14 -44 33
-28 36 -37 18 -55 -9 -9 -19 -6 -44 13 -38 29 -44 30 -44 10 0 -8 14 -24 30
-37 32 -24 37 -40 17 -56 -10 -8 -27 0 -70 34 -31 25 -57 48 -57 50 0 6 143
184 147 184 2 0 28 -19 58 -42z m-735 -139 c318 -51 606 -275 750 -582 65
-138 82 -212 87 -384 6 -163 -3 -237 -41 -357 l-23 -72 154 -169 c149 -165
191 -217 161 -199 -7 4 -77 50 -156 101 -78 51 -160 104 -181 117 l-38 24 -43
-61 c-159 -226 -361 -364 -624 -427 -114 -28 -339 -28 -453 0 -252 60 -469
206 -612 412 l-54 77 -38 -25 c-21 -13 -103 -66 -181 -117 -79 -51 -149 -97
-156 -101 -30 -18 12 34 162 199 l153 170 -18 53 c-51 148 -65 384 -33 540 61
299 267 567 539 705 83 42 202 83 277 96 76 12 291 13 368 0z m-1408 -907 c35
-33 41 -45 45 -88 6 -67 -19 -112 -77 -142 -101 -52 -210 15 -210 130 0 82 60
138 148 138 47 0 57 -4 94 -38z m2635 17 c42 -26 63 -66 63 -121 0 -112 -110
-178 -209 -126 -59 30 -84 76 -78 142 4 43 10 55 45 88 37 34 47 38 93 38 35
0 63 -7 86 -21z m-2074 -1181 c15 -11 27 -24 27 -29 0 -14 -26 -11 -40 6 -18
22 -35 18 -55 -12 -18 -26 -17 -27 10 -49 33 -26 17 -42 -19 -19 -37 24 -46
-2 -10 -30 42 -34 21 -43 -26 -11 l-40 26 50 76 c33 47 55 72 63 68 7 -4 24
-16 40 -26z m1415 -28 c17 -28 37 -49 44 -47 7 1 12 -12 14 -30 2 -32 -19 -48
-28 -21 -3 8 -15 5 -36 -11 -18 -12 -36 -19 -42 -16 -5 3 -10 41 -10 84 0 109
9 115 58 41z m-1247 -69 c30 -24 19 -39 -13 -17 -12 9 -28 16 -35 16 -19 0
-15 -42 7 -70 36 -46 21 -90 -31 -90 -32 0 -75 32 -65 48 5 8 16 5 37 -10 23
-17 32 -19 42 -9 9 9 7 20 -11 51 -12 21 -22 47 -22 57 0 44 51 57 91 24z
m1065 -16 c14 -21 15 -32 5 -71 -14 -53 -11 -60 17 -45 27 14 32 14 32 -2 0
-7 -22 -23 -50 -34 -27 -12 -50 -17 -50 -12 0 5 7 36 16 68 9 33 14 66 11 75
-9 23 -48 20 -54 -4 -6 -22 -33 -28 -33 -7 0 7 7 23 16 35 22 31 69 30 90 -3z
m-883 -44 c34 -13 37 -36 3 -27 -23 6 -26 1 -47 -69 -20 -70 -31 -86 -42 -67
-3 4 4 34 14 67 24 76 24 82 -1 90 -11 4 -17 11 -14 17 7 11 41 6 87 -11z
m686 -27 c48 -61 34 -149 -23 -149 -35 0 -64 35 -73 88 -12 75 53 116 96 61z
m-223 -12 c6 -4 17 -18 23 -30 11 -21 9 -30 -18 -73 l-30 -49 35 0 c61 0 35
-25 -30 -28 l-57 -3 41 61 c23 33 40 69 38 78 -4 22 -46 28 -54 8 -7 -17 -34
-22 -34 -6 0 31 59 60 86 42z m-346 -157 c0 -8 -7 -15 -15 -15 -8 0 -15 7 -15
15 0 8 7 15 15 15 8 0 15 -7 15 -15z"/>
<path d="M2543 3830 c-11 -28 -10 -30 14 -30 21 0 23 3 18 23 -12 36 -20 38
-32 7z"/>
<path d="M2837 3843 c-6 -33 -8 -31 27 -35 39 -4 60 27 32 48 -31 22 -53 17
-59 -13z"/>
<path d="M2350 3453 c-85 -16 -192 -48 -246 -73 -281 -127 -486 -384 -549
-688 -22 -101 -21 -284 0 -387 78 -377 373 -669 755 -751 84 -18 296 -18 380
0 383 82 677 375 755 752 21 103 21 286 0 389 -72 350 -346 641 -691 735 -60
17 -114 23 -229 25 -82 2 -161 1 -175 -2z m187 -212 c2 -22 -3 -32 -17 -36
-11 -4 -24 -3 -30 0 -16 10 -12 -11 5 -25 9 -7 13 -15 10 -18 -9 -10 -45 31
-45 51 0 27 28 57 54 57 16 0 21 -7 23 -29z m165 -150 c81 -26 124 -60 139
-111 9 -30 18 -39 40 -44 77 -15 95 -123 30 -173 -25 -20 -31 -15 -31 23 0 21
-4 33 -10 29 -5 -3 -10 -19 -10 -36 0 -29 -9 -43 -63 -99 -32 -33 -126 -66
-216 -76 -72 -9 -101 -23 -46 -24 37 -1 38 -2 15 -11 -14 -6 -47 -8 -75 -5
l-50 5 39 -11 c30 -8 53 -8 95 2 111 25 178 12 230 -44 16 -16 35 -26 54 -26
35 0 87 -48 87 -81 0 -13 16 -40 37 -61 29 -30 34 -41 25 -50 -7 -7 -12 -23
-12 -36 l0 -25 -22 29 c-13 16 -22 34 -20 40 1 6 -6 18 -15 27 -16 14 -23 14
-69 -1 l-52 -15 -16 -66 c-24 -95 -96 -237 -155 -302 -51 -57 -86 -75 -122
-64 -24 8 -15 25 14 25 25 0 130 106 121 122 -4 6 -17 -3 -31 -21 -30 -38 -72
-61 -111 -61 -21 0 -41 12 -70 41 -39 38 -41 39 -51 20 -13 -24 -14 -34 -2
-26 10 6 44 -35 36 -44 -9 -9 -66 54 -95 104 -32 57 -74 171 -85 230 -8 45
-18 55 -58 55 -40 0 -77 41 -77 83 0 42 28 69 74 72 24 2 44 13 70 38 25 25
54 41 96 53 57 16 74 30 48 39 -7 2 -39 11 -71 20 -67 19 -113 54 -122 94 -5
23 -10 27 -29 24 -53 -11 -102 54 -90 117 8 35 46 70 79 70 16 0 25 8 30 27
17 68 78 111 197 138 85 20 233 13 320 -14z m-582 -776 c-7 -9 -18 -15 -24
-14 -30 4 -39 -1 -27 -15 9 -10 9 -16 1 -21 -6 -4 -12 -5 -13 -4 -1 2 -11 15
-22 28 l-20 23 39 33 40 33 19 -24 c15 -20 17 -27 7 -39z m-112 -27 c16 -16
15 -43 -3 -78 -17 -34 -35 -39 -35 -12 0 11 -9 27 -20 37 -17 15 -24 16 -50 5
-44 -18 -50 -3 -12 31 35 31 97 40 120 17z m1112 -3 c29 -15 56 -52 46 -62 -3
-3 -17 2 -32 12 -33 21 -70 8 -80 -29 -6 -27 -34 -26 -56 3 -11 14 -11 14 4 3
15 -12 16 -10 6 22 -9 27 -8 39 2 51 16 19 72 19 110 0z"/>
<path d="M2445 3019 c-144 -19 -180 -51 -179 -162 0 -130 42 -165 209 -175
138 -7 250 23 274 74 16 36 14 169 -3 203 -16 30 -59 47 -142 57 -27 3 -60 6
-74 8 -14 1 -52 -1 -85 -5z m-17 -91 c7 -7 12 -24 12 -38 0 -33 -17 -50 -50
-50 -45 0 -63 37 -40 81 12 22 59 26 78 7z m269 -17 c13 -27 3 -58 -23 -68
-27 -10 -63 7 -70 33 -14 56 67 87 93 35z m-67 -119 c0 -15 -26 -45 -52 -58
-59 -31 -149 -7 -178 46 -7 13 8 15 111 15 65 0 119 -1 119 -3z"/>
<path d="M2173 2820 c0 -30 2 -43 4 -27 2 15 2 39 0 55 -2 15 -4 2 -4 -28z"/>
<path d="M2478 2533 c6 -2 18 -2 25 0 6 3 1 5 -13 5 -14 0 -19 -2 -12 -5z"/>
<path d="M2563 2533 c9 -2 23 -2 30 0 6 3 -1 5 -18 5 -16 0 -22 -2 -12 -5z"/>
<path d="M2197 2388 c-5 -17 -14 -28 -25 -28 -10 -1 -5 -6 13 -14 35 -15 39
-10 27 36 l-8 33 -7 -27z"/>
<path d="M2810 2376 c0 -22 3 -27 11 -19 8 8 8 16 0 30 -9 16 -10 14 -11 -11z"/>
<path d="M2463 2353 c32 -2 81 -2 110 0 29 2 3 3 -58 3 -60 0 -84 -1 -52 -3z"/>
<path d="M2473 2317 c46 -6 82 -6 110 1 36 8 27 10 -68 9 l-110 0 68 -10z"/>
<path d="M2410 2290 c0 -6 40 -9 103 -9 95 2 98 2 42 9 -89 11 -145 11 -145 0z"/>
<path d="M2480 2251 c41 -4 89 -4 105 0 17 4 -17 7 -75 6 -103 0 -103 0 -30
-6z"/>
<path d="M2420 2220 c0 -12 76 -12 140 -1 39 7 32 9 -47 10 -56 1 -93 -3 -93
-9z"/>
<path d="M2463 2183 c26 -2 68 -2 95 0 26 2 4 3 -48 3 -52 0 -74 -1 -47 -3z"/>
<path d="M2435 2150 c-14 -23 17 -40 74 -40 56 0 81 11 81 37 0 16 -145 19
-155 3z m125 -20 c-8 -5 -31 -10 -50 -10 -19 0 -42 5 -50 10 -11 7 4 10 50 10
46 0 61 -3 50 -10z"/>
<path d="M1093 2595 c-44 -31 -16 -87 34 -69 35 12 51 39 37 62 -15 23 -44 26
-71 7z"/>
<path d="M1192 2598 c-19 -19 -14 -45 10 -62 30 -22 55 -20 68 4 24 44 -43 93
-78 58z"/>
<path d="M1060 2494 c-20 -23 -1 -68 29 -72 39 -6 56 42 25 72 -20 20 -38 20
-54 0z"/>
<path d="M1231 2496 c-7 -8 -11 -27 -9 -43 2 -22 9 -29 29 -31 21 -2 29 3 39
27 10 25 10 34 0 46 -16 19 -44 19 -59 1z"/>
<path d="M1131 2422 c-15 -28 5 -52 44 -52 39 0 49 11 41 46 -5 20 -13 24 -41
24 -23 0 -38 -6 -44 -18z"/>
<path d="M3752 2603 c-7 -2 -17 -13 -22 -24 -25 -46 38 -80 73 -41 38 42 3 87
-51 65z"/>
<path d="M3848 2599 c-39 -22 -4 -79 49 -79 34 0 43 47 13 72 -25 20 -37 22
-62 7z"/>
<path d="M3710 2495 c-19 -23 5 -75 36 -75 31 0 46 29 31 61 -15 29 -49 36
-67 14z"/>
<path d="M3886 2495 c-29 -29 -17 -75 20 -75 17 0 28 8 36 26 21 45 -22 83
-56 49z"/>
<path d="M3784 2416 c-8 -35 2 -46 41 -46 39 0 59 24 44 52 -6 12 -21 18 -44
18 -28 0 -36 -4 -41 -24z"/>
<path d="M3211 1390 c1 -14 4 -35 7 -48 6 -20 9 -21 24 -10 15 12 15 16 -8 48
-23 32 -24 33 -23 10z"/>
<path d="M2807 1253 c-24 -23 11 -137 40 -131 25 5 24 89 -2 118 -19 21 -28
24 -38 13z"/>
</g>
</svg>
